HIERARCHY
ROOT hip
{
	OFFSET 0.000000 0.000000 0.000000
	CHANNELS 6 Xposition Yposition Zposition Zrotation Yrotation Xrotation 
	JOINT lhipjoint
	{
		OFFSET 0.000000 0.000000 0.000000
		CHANNELS 3 Zrotation Yrotation Xrotation
		JOINT lfemur
		{
			OFFSET 1.363060 -1.794630 0.839290
			CHANNELS 3 Zrotation Yrotation Xrotation
			JOINT ltibia
			{
				OFFSET 2.448110 -6.726130 0.000000
				CHANNELS 3 Zrotation Yrotation Xrotation
				JOINT lfoot
				{
					OFFSET 2.562200 -7.039590 0.000000
					CHANNELS 3 Zrotation Yrotation Xrotation
					JOINT ltoes
					{
						OFFSET 0.157640 -0.433110 2.322550
						CHANNELS 3 Zrotation Yrotation Xrotation
						End Site
						{
							OFFSET 0.000000 0.000000 0.000000
						}
					}
				}
			}
		}
	}
	JOINT rhipjoint
	{
		OFFSET 0.000000 0.000000 0.000000
		CHANNELS 3 Zrotation Yrotation Xrotation
		JOINT rfemur
		{
			OFFSET -1.305520 -1.794630 0.839290
			CHANNELS 3 Zrotation Yrotation Xrotation
			JOINT rtibia
			{
				OFFSET -2.542530 -6.985550 0.000000
				CHANNELS 3 Zrotation Yrotation Xrotation
				JOINT rfoot
				{
					OFFSET -2.568260 -7.056230 0.000000
					CHANNELS 3 Zrotation Yrotation Xrotation
					JOINT rtoes
					{
						OFFSET -0.164730 -0.452590 2.363150
						CHANNELS 3 Zrotation Yrotation Xrotation
						End Site
						{
							OFFSET 0.000000 0.000000 0.000000
						}
					}
				}
			}
		}
	}
	JOINT lowerback
	{
		OFFSET 0.000000 0.000000 0.000000
		CHANNELS 3 Zrotation Yrotation Xrotation
		JOINT upperback
		{
			OFFSET 0.028270 2.035590 -0.193380
			CHANNELS 3 Zrotation Yrotation Xrotation
			JOINT thorax
			{
				OFFSET 0.056720 2.048850 -0.042750
				CHANNELS 3 Zrotation Yrotation Xrotation
				JOINT lowerneck
				{
					OFFSET 0.000000 0.000000 0.000000
					CHANNELS 3 Zrotation Yrotation Xrotation
					JOINT upperneck
					{
						OFFSET -0.054170 1.746240 0.172020
						CHANNELS 3 Zrotation Yrotation Xrotation
						JOINT head
						{
							OFFSET 0.104070 1.761360 -0.123970
							CHANNELS 3 Zrotation Yrotation Xrotation
							End Site
							{
								OFFSET 0.000000 0.000000 0.000000
							}
						}
					}
				}
				JOINT lclavicle
				{
					OFFSET 0.000000 0.000000 0.000000
					CHANNELS 3 Zrotation Yrotation Xrotation
					JOINT lhumerus
					{
						OFFSET 3.362410 1.200890 -0.311210
						CHANNELS 3 Zrotation Yrotation Xrotation
						JOINT lradius
						{
							OFFSET 4.983000 -0.000000 -0.000000
							CHANNELS 3 Zrotation Yrotation Xrotation
							JOINT lwrist
							{
								OFFSET 3.483560 -0.000000 -0.000000
								CHANNELS 3 Zrotation Yrotation Xrotation
								JOINT lhand
								{
									OFFSET 0.000000 0.000000 0.000000
									CHANNELS 3 Zrotation Yrotation Xrotation
									JOINT lfingers
									{
										OFFSET 0.715260 -0.000000 -0.000000
										CHANNELS 3 Zrotation Yrotation Xrotation
										End Site
										{
											OFFSET 0.000000 0.000000 0.000000
										}
									}
								}
								JOINT lthumb
								{
									OFFSET 0.000000 0.000000 0.000000
									CHANNELS 3 Zrotation Yrotation Xrotation
									End Site
									{
										OFFSET 0.000000 0.000000 0.000000
									}
								}
							}
						}
					}
				}
				JOINT rclavicle
				{
					OFFSET 0.000000 0.000000 0.000000
					CHANNELS 3 Zrotation Yrotation Xrotation
					JOINT rhumerus
					{
						OFFSET -3.136600 1.374050 -0.404650
						CHANNELS 3 Zrotation Yrotation Xrotation
						JOINT rradius
						{
							OFFSET -5.241900 -0.000000 -0.000000
							CHANNELS 3 Zrotation Yrotation Xrotation
							JOINT rwrist
							{
								OFFSET -3.444170 -0.000000 -0.000000
								CHANNELS 3 Zrotation Yrotation Xrotation
								JOINT rhand
								{
									OFFSET 0.000000 0.000000 0.000000
									CHANNELS 3 Zrotation Yrotation Xrotation
									JOINT rfingers
									{
										OFFSET -0.622530 -0.000000 -0.000000
										CHANNELS 3 Zrotation Yrotation Xrotation
										End Site
										{
											OFFSET 0.000000 0.000000 0.000000
										}
									}
								}
								JOINT rthumb
								{
									OFFSET 0.000000 0.000000 0.000000
									CHANNELS 3 Zrotation Yrotation Xrotation
									End Site
									{
										OFFSET 0.000000 0.000000 0.000000
									}
								}
							}
						}
					}
				}
			}
		}
	}
}
MOTION
Frames: 9
Frame Time: 0.008333
-0.864340 13.452578 2.994329 178.057116 -4.644820 168.548009 -7.179746 -5.555682 -0.462901 12.915371 -0.505243 2.851208 5.279508 15.702419 43.400816 -0.243617 -21.738188 -10.966489 5.697000 -14.128100 -43.753200 6.802019 7.645141 -3.295562 -11.423620 -2.517061 8.299893 -7.984954 -19.369083 54.191245 -1.896299 4.046021 -25.598372 -3.374000 11.277200 -33.220600 -1.969064 -3.363808 20.871357 1.707302 -4.510132 -5.640430 2.964504 -2.703217 -6.103544 -13.919686 -5.907719 -7.196309 12.339294 -8.292025 -1.373527 4.718900 -3.888300 -0.604000 -6.553419 -7.150927 3.719289 61.895628 -23.030396 -43.804917 31.008466 -46.847210 -12.242265 -0.419320 -2.086424 -44.920251 45.822516 2.194937 4.122700 -7.125000 0.000000 0.000000 17.339700 35.106800 -4.381000 11.119489 4.820046 1.279130 -78.571115 29.246208 -60.537497 -33.060276 52.039542 -11.697774 -0.136852 -0.437191 -67.437242 -43.322087 9.750087 -9.052200 7.125000 0.000000 0.000000 -11.000300 -16.760400 -7.501600 
-0.860129 13.462701 2.999883 178.180989 -4.697403 168.359341 -7.163939 -5.573050 -0.464570 12.982896 -0.471696 3.269460 5.144890 15.599890 42.887772 -0.203821 -21.530243 -11.198922 5.902900 -14.333600 -44.590800 6.719359 7.665480 -3.341959 -10.873064 -2.479304 8.759748 -7.889891 -19.316299 53.794105 -1.847637 3.073168 -25.921836 -3.553600 11.541300 -34.128100 -1.982562 -3.385900 20.910661 1.744157 -4.528637 -5.608645 3.152337 -2.714251 -5.969029 -14.180695 -5.880925 -7.168006 12.464647 -8.264417 -1.456713 4.816300 -3.865900 -0.634300 -6.582162 -7.105802 3.700346 62.655036 -22.942540 -42.128447 31.293948 -47.001551 -12.300636 -0.369564 -2.108490 -45.908449 47.067992 3.020427 5.283100 -7.125000 0.000000 0.000000 18.608300 36.415600 -4.105200 11.176630 4.737662 1.303321 -79.406933 29.695621 -60.349949 -33.116968 52.132620 -11.695463 -0.143412 -0.487562 -69.038927 -43.326136 9.591805 -8.902400 7.125000 0.000000 0.000000 -10.997600 -16.967900 -7.448800 
-0.854396 13.510983 3.005526 178.301863 -4.790788 168.230336 -7.130370 -5.596873 -0.469063 12.859690 -0.549969 3.948861 4.887035 15.366037 41.830742 -0.162774 -20.947997 -11.171517 6.062500 -14.488700 -45.232200 6.614849 7.686211 -3.392595 -10.165939 -2.407942 9.344872 -7.694323 -19.189341 53.026368 -1.741422 2.055589 -25.889581 -3.670000 11.707800 -34.706100 -2.020069 -3.405869 20.869291 1.780228 -4.541835 -5.594255 3.357849 -2.715255 -5.872687 -14.461182 -5.845120 -7.073768 12.603092 -8.242337 -1.518840 4.927900 -3.848700 -0.669800 -6.595713 -7.085358 3.696621 63.075176 -22.917476 -40.244162 31.324625 -46.938154 -12.197011 -0.325879 -2.139318 -46.572905 48.230037 3.862406 6.553800 -7.125000 0.000000 0.000000 19.869300 37.808500 -3.694700 11.207112 4.675531 1.314163 -79.725614 30.158507 -59.622218 -33.117032 52.158760 -11.661072 -0.155479 -0.509360 -70.425216 -43.164710 9.669917 -8.898500 7.125000 0.000000 0.000000 -10.860900 -16.923600 -7.363500 
-0.848574 13.575211 3.013678 178.440257 -4.911739 168.158681 -7.088785 -5.623052 -0.476672 12.646638 -0.743662 4.763973 4.552723 15.032551 40.406435 -0.097828 -20.045579 -11.172590 6.371500 -14.778900 -46.455100 6.496572 7.702659 -3.446966 -9.337811 -2.264852 9.996906 -7.427729 -18.997879 51.979620 -1.580374 0.972132 -25.508717 -3.718100 11.775600 -34.942600 -2.053769 -3.433974 20.684701 1.818131 -4.558017 -5.583083 3.569913 -2.713557 -5.740307 -14.753748 -5.788445 -6.899867 12.731894 -8.215212 -1.555685 5.049500 -3.830800 -0.722800 -6.587858 -7.087881 3.716539 63.107802 -22.970923 -38.313243 30.972401 -46.565018 -11.856595 -0.291332 -2.180420 -46.800577 49.042503 4.591238 7.702400 -7.125000 0.000000 0.000000 20.848400 39.059200 -3.217200 11.201935 4.634496 1.301291 -79.502805 30.475852 -58.112857 -33.195831 52.180419 -11.656887 -0.172483 -0.499755 -71.650682 -42.930749 10.032586 -9.111200 7.125000 0.000000 0.000000 -10.646700 -16.546000 -7.302200 
-0.840691 13.688169 3.014126 178.582947 -5.074401 168.158427 -7.030665 -5.655270 -0.487804 12.244319 -1.025155 5.774436 4.133149 14.568941 38.524613 -0.024925 -18.774624 -11.040058 6.777600 -15.141700 -48.028000 6.356499 7.724313 -3.509471 -8.338862 -2.135692 10.832274 -7.043057 -18.708548 50.476989 -1.359308 -0.251095 -24.766307 -3.753200 11.824600 -35.114300 -2.101219 -3.471644 20.348212 1.853183 -4.583346 -5.577890 3.773801 -2.712050 -5.577721 -15.031026 -5.724409 -6.623631 12.840896 -8.203188 -1.614287 5.173600 -3.822300 -0.813600 -6.560152 -7.113417 3.757900 62.761197 -23.101771 -36.361323 30.289460 -45.914814 -11.320412 -0.266142 -2.231025 -46.486974 49.338475 5.193082 8.610400 -7.125000 0.000000 0.000000 21.360900 40.096800 -2.726100 11.165725 4.612695 1.265169 -78.775348 30.651214 -55.872873 -33.216610 52.096125 -11.599341 -0.199683 -0.456081 -72.542745 -42.596698 10.724885 -9.559600 7.125000 0.000000 0.000000 -10.331200 -15.790700 -7.250300 
-0.832091 13.829702 3.012065 178.732685 -5.296056 168.212055 -6.966260 -5.689071 -0.501101 11.730828 -1.401026 6.852648 3.672673 13.996872 36.327522 0.022593 -17.279056 -10.532713 7.187800 -15.488000 -49.581000 6.210741 7.748655 -3.573568 -7.264564 -2.019835 11.770977 -6.573803 -18.328433 48.620443 -1.088755 -1.503287 -23.569457 -3.771700 11.850300 -35.204400 -2.147491 -3.528519 19.921467 1.886980 -4.630767 -5.578958 3.973081 -2.719128 -5.407867 -15.319774 -5.652409 -6.316164 12.952562 -8.194322 -1.616121 5.306600 -3.816800 -0.893400 -6.518133 -7.158429 3.807605 62.107334 -23.231311 -34.308314 29.408573 -45.069623 -10.677272 -0.243261 -2.292097 -45.880007 49.088908 5.617075 9.153000 -7.125000 0.000000 0.000000 21.328200 40.812500 -2.322800 11.105939 4.610273 1.210386 -77.666654 30.703920 -53.105820 -33.020211 51.795929 -11.396105 -0.239179 -0.380702 -72.886172 -42.125300 11.674868 -10.154800 7.125000 0.000000 0.000000 -9.902100 -14.765600 -7.161000 
-0.821969 14.003036 3.009557 178.909152 -5.543562 168.673669 -6.895846 -5.702207 -0.509776 11.205411 -1.854668 7.577343 3.194092 13.291659 33.837739 0.019698 -15.521779 -9.245158 7.608100 -15.823300 -51.138300 6.047643 7.736334 -3.617645 -6.109470 -1.865031 12.321376 -6.060887 -17.831802 46.488547 -0.776025 -2.845192 -21.880579 -3.800900 11.890700 -35.346300 -2.148903 -3.607167 19.051122 1.925795 -4.675670 -5.617054 4.159068 -2.712054 -5.198190 -15.595767 -5.581419 -5.987889 13.028819 -8.196479 -1.589044 5.430600 -3.818000 -0.974900 -6.457251 -7.219649 3.853595 61.176329 -23.310332 -32.186063 28.385526 -44.057541 -9.966268 -0.227986 -2.359047 -45.053761 48.275779 5.655636 9.053000 -7.125000 0.000000 0.000000 20.643700 40.883600 -2.202300 11.027746 4.630133 1.128660 -76.198279 30.576397 -49.802468 -32.690455 51.324794 -11.098403 -0.286280 -0.279286 -72.881106 -41.677861 12.769386 -10.846600 7.125000 0.000000 0.000000 -9.483700 -13.585300 -7.090500 
-0.811309 14.193838 2.991104 179.113825 -5.861893 168.983333 -6.827771 -5.730119 -0.522046 10.661000 -2.376985 8.599117 2.719381 12.521530 31.175240 -0.004892 -13.652761 -7.212126 7.929500 -16.067200 -52.308500 5.883767 7.742980 -3.676621 -4.818693 -1.674599 13.247450 -5.520687 -17.277931 44.150214 -0.457216 -4.246816 -19.923821 -3.788700 11.873800 -35.287200 -2.157300 -3.697425 18.238790 1.965587 -4.745271 -5.639310 4.358458 -2.721318 -4.958296 -15.903801 -5.535617 -5.670045 13.107847 -8.237145 -1.481543 5.563200 -3.837700 -1.022200 -6.383717 -7.293603 3.900212 60.005858 -23.288837 -29.898175 27.366185 -42.988940 -9.282129 -0.216644 -2.431136 -44.324960 47.053221 5.254929 8.335000 -7.125000 0.000000 0.000000 19.455900 40.270000 -2.372200 10.929327 4.669052 1.032528 -74.488273 30.255662 -46.052920 -32.368938 50.790173 -10.793615 -0.335903 -0.164768 -72.723426 -41.495676 13.833001 -11.587500 7.125000 0.000000 0.000000 -9.254500 -12.411100 -7.145200 
-0.798141 14.401480 2.967008 179.317775 -6.330876 169.270734 -6.759536 -5.751003 -0.534821 10.064650 -3.052549 9.656021 2.287712 11.710589 28.483282 -0.008181 -11.629854 -4.584917 8.004300 -16.122400 -52.578200 5.724447 7.746187 -3.734496 -3.416254 -1.392497 14.308860 -5.006094 -16.686858 41.777067 -0.134654 -5.831944 -17.750475 -3.753500 11.825000 -35.115600 -2.234142 -3.824028 17.465201 2.006174 -4.876700 -5.665997 4.586178 -2.763890 -4.732654 -16.094791 -5.536141 -5.518844 13.090071 -8.304796 -1.231229 5.618100 -3.873000 -0.987800 -6.290495 -7.369417 3.924770 58.600503 -23.055175 -27.375215 26.515298 -41.994886 -8.723149 -0.214802 -2.505676 -43.864643 45.687904 4.406473 7.134100 -7.125000 0.000000 0.000000 18.057400 39.020800 -2.766600 10.825815 4.741231 0.931366 -72.594037 29.810974 -42.206482 -31.996379 50.178385 -10.471303 -0.383733 -0.044710 -72.416687 -41.488904 14.645621 -12.184400 7.125000 0.000000 0.000000 -9.187100 -11.524000 -7.262900 
